<svg width="595.27557" height="841.88977" xmlns="http://www.w3.org/2000/svg" xmlns:undefined="http://sodipodi.sourceforge.net/DTD/sodipodi-0.dtd" version="1.1">

 <g>
  <title>Layer 1</title>
  <path fill-rule="evenodd" fill="#000000" id="path2" d="m47.9373,97.5466c-0.2942,-0.27319 -0.934,-1.3768 -1.19711,-1.78731c-0.3782,-0.5898 -0.7584,-1.1671 -1.1394,-1.7688c-0.3963,-0.62569 -0.7564,-1.1927 -1.1402,-1.7608l-28.593,-44.2666c-0.5243,-0.8218 -0.7652,-0.86639 -0.5456,-2.0965c0.1412,-0.7906 0.3664,-1.611 0.597,-2.321c0.606,-1.8671 2.0462,-7.4268 4.9321,-6.284c1.39,0.5504 2.6229,1.2889 3.8339,1.978c4.8738,2.7739 5.8198,3.6144 11.3766,6.1622c0.9969,0.457 3.2192,1.2734 3.4141,2.3914l8.0739,47.255c0.1197,0.7034 0.3769,1.8217 0.3877,2.4984zm7.37379,-0.004c0.01151,-0.6832 0.2684,-1.7773 0.38721,-2.4933l8.0743,-47.257c0.1949,-1.11629 2.4166,-1.9333 3.4133,-2.3901c1.3912,-0.6376 2.6549,-1.252 3.98631,-1.921c3.4337,-1.7252 8.3978,-5.0998 11.2242,-6.2191c0.9165,-0.363 1.4557,-0.1728 2.0677,0.3322c1.28339,1.0591 2.34389,4.3524 2.86459,5.9521c0.2318,0.7125 0.4544,1.53 0.5961,2.3209c0.22121,1.2342 -0.02,1.2734 -0.5449,2.0962c-0.7511,1.1775 -1.4902,2.3548 -2.2868,3.5224l-4.5593,7.0686c-2.9802,4.6418 -6.3363,9.6306 -9.1613,14.19231l-3.4181,5.2996c-0.4058,0.6046 -0.7723,1.1507 -1.1494,1.752c-0.777,1.2395 -1.53,2.3716 -2.3148,3.5995l-4.5608,7.0667c-0.4201,0.6068 -0.73579,1.1636 -1.1429,1.7651c-0.5165,0.7634 -3.1589,5.0144 -3.4754,5.3129zm0.2187,-56.0602l-2.4451,61.4389c0.337,-0.2274 1.159,-1.4424 1.519,-1.8943c0.5207,-0.65349 0.9919,-1.26369 1.4877,-1.90359l5.915,-7.65c2.7502,-3.71519 6.0816,-7.71079 8.8914,-11.4518l5.97591,-7.6857c1.035,-1.2564 1.9455,-2.5369 2.9645,-3.8217l14.9072,-18.9977c0.49399,-0.62531 1.01259,-1.2849 1.50079,-1.8903l3.0415,-3.7478c0.60789,-0.63831 1.7596,-0.5109 2.53549,-0.9597c-0.32869,-0.1604 -1.88699,-0.4662 -2.39769,-0.6166c-0.79631,-0.2345 -1.50201,-0.4761 -2.25931,-0.7463c-1.5119,-0.5393 -2.9626,-1.0744 -4.4461,-1.6576c-2.0458,-0.8043 -7.2807,-2.9505 -7.9482,-4.2675c2.5294,-1.6278 8.21021,-5.469 10.3591,-7.3346c0.89531,-0.7771 3.7572,-3.1061 3.3674,-4.4261c-0.10069,-0.3409 -2.30099,-3.0031 -2.6465,-3.3812c-3.9469,-4.3202 -6.3787,-9.2798 -9.3554,-14.2825c-0.5196,-0.8733 -0.9511,-1.628 -1.5307,-2.4423c-0.627,-0.8811 -0.9854,-1.4468 -2.03619,-1.9308l1.8642,3.0716c1.4624,2.4866 4.6775,7.9105 4.0622,10.6277c-0.5706,2.5191 -3.19611,5.5392 -4.9229,7.3823c-1.2937,1.3809 -2.39799,2.3779 -3.8232,3.6335l-1.2945,1.1274c-4.4101,3.5771 -8.3046,6.1859 -13.2194,9.0624c-2.9385,1.7199 -8.5417,3.31371 -10.0662,4.7443zm-37.0556,-5.8486c-1.0295,1.99451 -14.0915,6.8973 -17.1931,7.2405c2.3755,0.9426 1.7395,-0.044 3.2571,1.6885c0.2571,0.2937 0.5297,0.6554 0.782,0.9626l44.8408,57.3991l-2.4496,-61.4422c-1.04411,-0.986 -4.937,-2.442 -6.6959,-3.164c-1.6773,-0.6886 -1.7478,-0.6308 -3.3627,-1.5812l-6.0866,-3.7935c-3.4478,-2.2703 -4.7716,-3.4158 -7.7586,-5.8048l-1.3026,-1.1234c-0.6242,-0.6609 -1.3641,-1.1404 -1.9391,-1.8374c-0.3715,-0.4502 -0.7527,-0.7427 -1.2049,-1.2127c-1.713,-1.7803 -4.4157,-4.9813 -4.969,-7.4334c-0.6424,-2.8477 3.2353,-9.4218 4.9814,-12.1304c0.2539,-0.3938 0.7739,-1.1565 0.9413,-1.5718c-1.6135,0.792 -2.6183,2.779 -3.5274,4.316c-1.4415,2.4374 -2.8407,5.0738 -4.3261,7.492c-0.5293,0.8618 -1.0713,1.6447 -1.5759,2.3977c-0.558,0.8326 -1.0886,1.4909 -1.6953,2.2736l-3.5496,4.3016c-1.3076,1.5911 -1.2685,1.7022 0.3645,3.7275c0.4903,0.6081 1.4304,1.3841 2.0599,1.9129c3.3659,2.8276 6.8795,4.8982 10.4094,7.3828z"/>
 </g>
</svg>